<?xml version="1.0" standalone="no"?>
<!DOCTYPE svg PUBLIC "-//W3C//DTD SVG 20010904//EN"
 "http://www.w3.org/TR/2001/REC-SVG-20010904/DTD/svg10.dtd">
<svg version="1.0" xmlns="http://www.w3.org/2000/svg"
 width="512.000000pt" height="512.000000pt" viewBox="0 0 512.000000 512.000000"
 preserveAspectRatio="xMidYMid meet">
<metadata>
Created by potrace 1.11, written by Peter Selinger 2001-2013
</metadata>
<g transform="translate(0.000000,512.000000) scale(0.100000,-0.100000)"
fill="#000000" stroke="none">
<path d="M1349 4010 c-125 -21 -344 -146 -501 -286 -126 -111 -217 -289 -243
-474 -51 -354 140 -966 384 -1229 39 -42 41 -47 31 -77 -8 -23 -8 -44 -1 -72
33 -121 205 -139 258 -27 l17 35 32 -91 c35 -96 110 -237 204 -381 38 -58 54
-91 49 -100 -16 -24 -10 -102 10 -134 24 -40 95 -69 145 -60 75 14 127 102
106 178 -12 42 -59 86 -100 95 -27 5 -28 8 -39 97 -5 50 -13 119 -17 154 l-6
63 29 -6 c15 -4 38 -12 51 -18 17 -8 58 -5 175 13 141 22 184 24 587 25 420 2
525 6 600 26 41 10 90 44 120 82 l21 27 -35 170 c-39 187 -43 250 -21 355 33
153 62 204 153 267 56 39 80 89 58 123 -25 38 -99 20 -222 -55 -36 -22 -68
-40 -70 -40 -8 0 48 104 73 137 55 72 172 138 275 154 218 35 482 -161 526
-391 29 -153 21 -343 -19 -463 -20 -61 -86 -170 -131 -217 -18 -20 -31 -24
-63 -22 -144 10 -198 -181 -73 -258 82 -50 191 6 205 106 4 34 14 46 72 92
154 121 240 217 359 400 88 135 130 241 159 407 20 119 13 303 -17 394 -51
153 -162 343 -335 572 -148 196 -453 345 -780 380 -101 11 -291 7 -370 -6
-278 -49 -449 -131 -573 -275 l-60 -69 -32 90 c-36 98 -64 140 -127 188 -89
69 -235 96 -385 72 -66 -10 -78 -10 -133 10 -123 43 -241 57 -346 39z m-204
-1243 c1 -255 14 -364 74 -604 l38 -152 -36 20 c-19 10 -41 19 -46 19 -37 0
-105 352 -105 542 0 126 12 207 47 316 15 45 27 82 27 82 1 0 1 -100 1 -223z"/>
</g>
</svg>
